<?xml version="1.0" standalone="no"?>
<!DOCTYPE svg PUBLIC "-//W3C//DTD SVG 20010904//EN"
 "http://www.w3.org/TR/2001/REC-SVG-20010904/DTD/svg10.dtd">
<svg version="1.0" xmlns="http://www.w3.org/2000/svg"
 width="1024.000000pt" height="1024.000000pt" viewBox="0 0 1024.000000 1024.000000"
 preserveAspectRatio="xMidYMid meet">

<g transform="translate(0.000000,1024.000000) scale(0.100000,-0.100000)"
fill="#000000" stroke="none">
<path d="M4915 8954 c-173 -13 -319 -29 -447 -50 -1013 -165 -1924 -798 -2419
-1681 -318 -566 -464 -1151 -446 -1783 8 -268 35 -461 103 -735 115 -461 355
-947 641 -1300 46 -56 52 -60 96 -63 58 -4 100 22 116 71 15 45 2 85 -52 154
-427 558 -677 1288 -677 1983 0 631 214 1285 593 1814 70 97 140 185 148 186
4 0 25 -30 47 -67 110 -187 250 -508 316 -726 43 -142 102 -407 112 -497 9
-89 28 -126 71 -140 47 -16 91 2 109 46 12 29 12 49 -1 138 -29 208 -115 524
-215 786 -48 126 -197 441 -272 574 l-33 58 84 80 c93 89 254 225 324 275 l45
33 17 -69 c23 -93 91 -260 144 -353 157 -275 326 -398 544 -398 132 0 235 48
348 160 125 124 211 277 288 510 71 219 98 360 109 587 l7 138 96 11 c53 6
146 14 206 18 l110 7 6 -92 c10 -137 8 -333 -3 -429 -33 -265 -95 -467 -290
-945 -220 -539 -304 -926 -305 -1400 0 -315 32 -552 110 -810 115 -380 357
-845 440 -845 24 0 64 19 85 40 35 35 26 79 -34 172 -115 176 -250 477 -315
700 -80 274 -105 481 -98 807 4 202 9 272 30 391 53 299 129 542 316 1003 214
529 283 859 262 1262 -4 77 -7 141 -7 141 5 6 279 -21 376 -37 107 -18 348
-74 357 -83 2 -1 -22 -70 -52 -151 -97 -262 -165 -500 -198 -705 -22 -132 -40
-363 -35 -450 3 -64 7 -75 31 -96 37 -32 96 -33 124 -1 19 20 22 42 33 207 20
338 58 507 203 910 44 124 82 226 83 228 4 6 156 -49 259 -93 87 -38 100 -46
99 -67 0 -12 -17 -76 -38 -141 -68 -220 -104 -494 -108 -829 -3 -183 -2 -188
20 -210 32 -32 94 -31 127 2 24 24 25 30 34 255 16 347 59 614 137 843 5 17
49 -7 234 -132 191 -128 311 -228 495 -408 l160 -157 -33 -58 c-47 -83 -129
-255 -158 -332 -40 -105 -47 -147 -29 -180 17 -33 33 -41 84 -41 46 0 62 16
90 90 30 78 164 350 172 350 16 0 222 -325 289 -455 l72 -140 -52 -130 c-130
-324 -187 -558 -211 -864 -13 -163 -2 -356 26 -493 49 -229 157 -431 323 -600
l75 -77 -52 -150 c-53 -154 -166 -415 -239 -554 -48 -89 -50 -108 -22 -155 39
-63 132 -78 177 -29 19 20 142 258 192 370 131 291 231 675 272 1037 16 138
16 577 0 710 -81 700 -366 1348 -827 1880 -370 428 -920 792 -1489 987 -264
90 -534 148 -810 173 -124 11 -424 20 -500 14z m-494 -451 c-32 -371 -191
-783 -361 -937 -153 -138 -341 -109 -490 76 -67 84 -170 293 -220 447 -22 68
-40 125 -40 127 0 1 37 25 83 52 258 156 614 296 927 366 85 19 106 21 108 10
2 -8 -1 -71 -7 -141z m3773 -2078 c107 -361 152 -744 126 -1070 -11 -141 -53
-452 -63 -461 -3 -3 -21 20 -106 135 -37 51 -100 179 -126 256 -42 126 -57
236 -58 410 0 184 12 276 63 494 38 158 110 375 120 364 5 -4 25 -62 44 -128z"/>
<path d="M5674 7009 c-67 -25 -119 -79 -158 -159 -29 -61 -31 -72 -31 -180 0
-130 11 -175 57 -245 38 -58 101 -100 175 -116 l54 -12 -3 -593 -3 -592 -76
-149 c-42 -81 -203 -377 -358 -658 -346 -624 -295 -531 -530 -955 -330 -592
-411 -744 -439 -821 -25 -69 -27 -85 -27 -234 0 -149 2 -166 28 -240 79 -231
244 -399 469 -477 l93 -33 1440 -3 c1022 -2 1459 0 1505 8 191 33 374 159 491
337 88 135 125 280 116 453 -7 144 -46 256 -156 449 -229 404 -573 1017 -791
1411 -144 261 -295 534 -335 605 -104 186 -131 243 -144 303 -7 36 -11 238
-11 621 l0 569 35 6 c167 32 266 184 252 390 -10 147 -68 249 -172 301 l-60
30 -685 2 c-661 2 -687 2 -736 -18z m1383 -244 c35 -35 35 -36 31 -106 -3 -65
-6 -74 -36 -100 l-32 -29 -620 0 -619 0 -26 23 c-53 45 -55 168 -4 219 l27 28
622 0 622 0 35 -35z m-247 -1042 c0 -350 4 -604 11 -643 15 -97 55 -174 424
-830 245 -434 323 -575 320 -578 -2 -2 -54 6 -116 17 -312 57 -586 49 -778
-21 -31 -11 -121 -51 -201 -88 -225 -106 -259 -115 -425 -115 -108 1 -163 6
-240 24 -211 48 -262 53 -435 48 -91 -2 -173 -8 -182 -12 -10 -4 -18 -3 -18 2
0 9 201 381 480 888 255 465 309 570 325 630 13 50 15 152 15 657 l0 598 410
0 410 0 0 -577z m505 -2234 c114 -15 334 -58 370 -73 25 -11 63 -72 252 -407
298 -530 313 -562 313 -709 0 -152 -48 -270 -154 -376 -78 -78 -166 -127 -259
-144 -34 -7 -562 -9 -1468 -8 l-1414 3 -62 24 c-239 94 -389 367 -329 601 21
84 47 135 269 544 117 216 191 342 203 347 11 4 87 12 169 19 177 15 342 8
475 -20 52 -12 129 -28 170 -37 50 -11 125 -16 225 -17 135 0 159 3 240 27 50
15 169 65 265 112 180 87 254 111 375 125 79 10 240 4 360 -11z"/>
<path d="M6354 4716 c-207 -67 -271 -332 -118 -490 61 -62 107 -81 204 -81 69
0 94 4 133 24 60 29 108 78 138 139 32 64 33 177 3 243 -26 56 -93 122 -154
151 -54 27 -148 33 -206 14z m151 -218 c37 -33 43 -85 15 -121 -41 -52 -99
-56 -145 -10 -34 35 -34 90 0 127 32 34 92 36 130 4z"/>
<path d="M5885 4020 c-63 -26 -104 -118 -85 -189 50 -187 330 -152 330 41 0
54 -40 121 -86 143 -34 16 -126 19 -159 5z"/>
<path d="M2688 6975 c-57 -19 -197 -123 -282 -209 -215 -219 -329 -475 -343
-772 -10 -211 23 -366 114 -549 68 -137 123 -207 284 -365 91 -90 155 -161
166 -185 17 -37 18 -108 21 -1110 2 -816 0 -1080 -9 -1114 -7 -24 -39 -85 -72
-135 -111 -168 -147 -281 -147 -457 0 -146 21 -243 80 -364 80 -165 200 -289
360 -370 117 -59 184 -76 316 -82 160 -7 255 11 389 77 285 138 455 405 456
713 0 186 -37 299 -161 487 -33 50 -63 108 -67 128 -4 20 -8 519 -8 1107 l1
1070 22 50 c17 37 58 85 160 185 151 148 219 238 289 386 137 290 137 655 -2
959 -97 214 -274 405 -482 522 -76 42 -118 41 -165 -4 l-29 -28 3 -420 3 -420
-25 -45 c-30 -52 -95 -105 -153 -122 -57 -18 -316 -17 -384 0 -72 19 -130 63
-155 119 -19 42 -20 73 -26 466 l-5 420 -26 29 c-34 37 -77 49 -123 33z m-68
-579 c0 -385 17 -470 115 -575 111 -118 211 -151 464 -151 183 0 248 8 332 39
128 48 221 144 259 268 18 59 20 93 20 372 l1 306 55 -60 c69 -76 154 -202
189 -280 48 -111 67 -200 72 -350 4 -127 2 -149 -21 -239 -29 -111 -86 -236
-147 -317 -21 -30 -102 -115 -178 -189 -150 -147 -190 -209 -212 -324 -6 -36
-9 -439 -7 -1158 4 -1265 -7 -1136 108 -1312 77 -120 103 -181 121 -282 48
-275 -148 -562 -441 -645 -73 -20 -214 -16 -295 9 -124 38 -231 118 -304 227
-67 100 -92 177 -98 302 -5 86 -2 112 17 174 27 90 44 124 119 238 32 49 63
110 70 135 9 35 12 343 11 1181 0 1255 4 1172 -65 1280 -17 28 -87 102 -154
165 -144 135 -205 211 -266 335 -167 335 -111 709 155 1035 36 43 68 79 73 80
4 0 7 -119 7 -264z"/>
<path d="M3143 4715 c-45 -31 -45 -40 -38 -898 7 -790 8 -813 27 -834 11 -12
31 -24 45 -28 33 -8 85 10 100 34 9 14 12 227 14 857 l1 838 -27 23 c-31 27
-89 31 -122 8z"/>
<path d="M3125 2411 c-59 -15 -111 -46 -160 -96 -183 -182 -133 -474 100 -582
52 -24 72 -28 155 -28 82 0 103 4 151 26 76 36 129 86 170 161 33 60 34 67 34
168 -1 95 -3 110 -28 158 -36 68 -102 131 -175 167 -45 23 -73 29 -137 31 -44
2 -93 0 -110 -5z m173 -221 c53 -33 74 -75 69 -144 -3 -54 -7 -62 -44 -96 -73
-69 -165 -59 -228 25 -36 46 -40 121 -9 162 53 72 144 94 212 53z"/>
<path d="M5109 6111 c-24 -25 -29 -38 -29 -78 0 -142 49 -405 112 -601 54
-171 142 -372 173 -399 34 -30 93 -31 123 -3 37 35 37 62 -1 147 -124 276
-186 503 -216 798 -5 50 -14 102 -20 117 -21 56 -95 66 -142 19z"/>
<path d="M4063 4610 c-35 -14 -56 -55 -49 -94 4 -19 29 -80 56 -136 201 -409
299 -717 345 -1084 4 -32 15 -57 30 -72 42 -42 122 -28 150 25 14 28 14 41 -4
158 -49 318 -162 659 -354 1064 -67 143 -100 169 -174 139z"/>
</g>
</svg>
