<?xml version="1.0" standalone="no"?>
<!DOCTYPE svg PUBLIC "-//W3C//DTD SVG 20010904//EN"
 "http://www.w3.org/TR/2001/REC-SVG-20010904/DTD/svg10.dtd">
<svg version="1.0" xmlns="http://www.w3.org/2000/svg"
 width="1024.000000pt" height="1024.000000pt" viewBox="0 0 1024.000000 1024.000000"
 preserveAspectRatio="xMidYMid meet">

<g transform="translate(0.000000,1024.000000) scale(0.100000,-0.100000)"
fill="#8B4513" stroke="none">
<path d="M4855 9363 c-796 -69 -1454 -366 -1974 -893 -414 -419 -683 -952
-765 -1510 -35 -238 -36 -346 -36 -3121 l0 -2759 -32 0 c-18 -1 -97 -1 -175 0
-162 1 -201 -9 -233 -62 -37 -60 -22 -124 39 -165 l34 -23 3404 0 c2904 0
3408 2 3431 14 50 26 73 59 74 109 0 29 -6 57 -17 73 -30 47 -67 54 -270 54
l-185 0 -3 2888 c-3 3182 2 2921 -63 3192 -171 717 -620 1336 -1259 1735 -421
264 -930 426 -1450 465 -130 9 -427 11 -520 3z m695 -267 c555 -88 1051 -307
1445 -639 501 -422 826 -1018 900 -1655 13 -109 15 -515 15 -2931 l0 -2804
-37 7 c-21 3 -102 6 -180 6 l-143 0 0 2768 c0 1829 -4 2804 -10 2877 -35 371
-201 777 -452 1109 -379 501 -951 832 -1593 923 -183 25 -620 26 -785 0 -270
-42 -484 -109 -725 -226 -696 -338 -1175 -984 -1285 -1734 -19 -128 -20 -208
-20 -2924 l0 -2793 -175 0 -175 0 3 2857 c2 2683 3 2864 20 2963 52 306 133
548 269 803 280 523 726 927 1308 1182 251 110 581 197 860 225 140 14 639 5
760 -14z m-550 -1476 l0 -900 -207 2 -208 3 3 65 c4 90 -16 323 -38 457 -37
214 -84 378 -210 727 -72 201 -123 373 -115 386 9 14 286 101 328 103 l42 2
22 -84 c28 -106 50 -283 58 -471 6 -128 9 -148 28 -167 27 -30 82 -31 114 -1
22 21 23 27 23 185 0 90 -5 207 -11 261 -9 86 -51 280 -65 303 -8 14 57 24
179 27 l57 2 0 -900z m420 884 l55 -5 -3 -135 c-9 -337 38 -563 216 -1024 49
-129 97 -257 107 -285 22 -66 72 -262 77 -300 l3 -30 -136 -3 -136 -3 -7 92
c-12 154 -51 303 -116 446 -59 127 -99 155 -170 118 -54 -28 -51 -62 16 -196
59 -117 94 -242 101 -362 l6 -98 -99 3 -99 3 -3 899 -2 898 67 -6 c38 -4 93
-9 123 -12z m346 -60 c107 -27 298 -100 313 -118 5 -7 3 -36 -7 -76 -11 -47
-15 -121 -15 -265 -1 -220 14 -324 73 -522 37 -125 141 -403 164 -438 48 -73
150 -44 147 42 0 21 -27 108 -60 194 -69 182 -114 336 -137 469 -21 120 -23
320 -5 428 l13 82 37 -22 c72 -43 197 -128 218 -147 18 -17 20 -32 22 -148 2
-198 14 -276 110 -703 35 -155 61 -342 61 -435 l0 -63 -318 -1 c-175 0 -323 3
-329 7 -6 4 -16 41 -22 82 -25 159 -62 283 -164 545 -183 473 -227 661 -227
978 0 110 3 137 14 137 8 0 58 -12 112 -26z m-1680 -255 c12 -46 61 -194 108
-329 168 -486 206 -655 221 -1006 4 -105 3 -123 -11 -128 -20 -8 -392 -8 -421
0 -19 5 -22 15 -28 87 -9 109 11 366 42 546 39 229 40 238 13 266 -16 17 -34
25 -57 25 -78 0 -83 -11 -134 -295 -18 -99 -23 -165 -25 -375 l-2 -254 -164
-1 -163 0 3 60 c6 98 40 237 112 460 112 342 128 423 138 670 l7 159 115 79
c121 83 199 128 214 123 5 -1 19 -40 32 -87z m-556 -321 c-1 -123 -41 -332
-95 -488 -81 -234 -120 -401 -140 -591 l-6 -56 -72 -7 c-40 -3 -87 -3 -105 0
l-33 7 3 262 3 261 57 111 c31 61 81 150 111 199 81 131 249 351 270 353 4 1
7 -23 7 -51z m3277 -70 c230 -279 408 -638 475 -955 19 -90 20 -106 7 -114 -8
-5 -104 -8 -214 -6 l-200 2 -6 145 c-7 166 -18 254 -59 465 -36 187 -56 317
-65 420 -3 44 -9 88 -11 98 -10 34 14 16 73 -55z m-3502 -1385 c23 -206 68
-419 160 -758 109 -398 155 -665 155 -902 l0 -83 -171 0 -171 0 6 28 c26 120
33 325 16 477 -15 130 -90 577 -101 597 -24 44 -97 51 -134 13 -14 -13 -25
-32 -25 -42 0 -10 21 -135 46 -278 53 -302 67 -521 44 -696 l-12 -99 -104 0
-104 0 0 900 0 900 194 0 195 0 6 -57z m629 -135 c3 -106 11 -346 16 -533 11
-358 19 -455 50 -598 22 -102 88 -302 131 -395 16 -36 29 -69 29 -73 0 -5 -85
-9 -189 -9 l-190 0 6 68 c3 37 0 131 -6 209 -20 247 -46 375 -181 878 -45 170
-93 391 -109 510 -6 44 -13 92 -16 108 l-4 27 228 0 228 0 7 -192z m502 67
c-3 -69 -14 -192 -23 -273 -11 -95 -17 -231 -17 -387 -1 -213 2 -251 22 -340
30 -134 70 -253 93 -276 36 -36 109 -17 130 33 10 26 8 45 -19 141 -68 242
-77 403 -43 747 15 152 28 353 31 473 0 4 88 7 195 7 l195 0 0 -900 0 -900
-322 2 -322 3 -47 105 c-56 124 -121 316 -143 423 -27 128 -35 252 -51 761 -9
269 -18 493 -21 498 -3 4 75 8 172 8 l177 0 -7 -125z m1180 -72 c-5 -109 -12
-443 -16 -743 -5 -300 -14 -570 -19 -600 -6 -30 -20 -101 -32 -157 l-22 -103
-148 0 -149 0 0 900 0 900 196 0 197 0 -7 -197z m634 60 c0 -238 -28 -380
-130 -673 -113 -322 -136 -469 -127 -787 l7 -203 -151 0 c-133 0 -150 2 -145
16 41 108 66 352 66 655 0 141 3 452 7 692 l6 437 234 0 233 0 0 -137z m610
105 c0 -105 -85 -427 -228 -871 -106 -325 -136 -500 -130 -750 l3 -147 -161 0
c-159 0 -162 0 -168 23 -3 12 -9 96 -12 187 -10 266 11 393 121 730 40 124 81
254 90 289 27 105 45 270 46 426 l1 145 219 0 219 0 0 -32z m450 -868 l0 -900
-74 0 c-56 0 -75 4 -80 15 -3 8 -13 65 -22 127 -20 140 -15 320 15 462 26 123
26 122 -4 151 -27 28 -89 34 -119 12 -39 -29 -82 -314 -72 -477 6 -93 28 -238
41 -272 7 -17 -5 -18 -160 -18 l-168 0 6 183 c8 261 32 379 167 797 106 328
145 473 171 637 12 76 23 148 25 161 4 22 7 22 139 22 l135 0 0 -900z m-3884
-1247 c-15 -224 -56 -418 -166 -782 -88 -293 -130 -510 -130 -678 l0 -73 -110
0 -110 0 0 820 0 820 261 0 262 0 -7 -107z m604 37 c0 -203 45 -469 156 -915
74 -300 107 -460 120 -587 l6 -68 -187 0 -188 0 7 50 c19 140 25 320 15 448
-10 136 -47 377 -74 482 -21 81 -65 108 -128 79 -46 -21 -49 -47 -22 -178 58
-283 71 -513 45 -758 l-13 -123 -239 0 -240 0 6 48 c3 26 8 76 12 112 11 116
51 302 99 465 100 337 126 432 150 549 28 140 55 336 55 405 0 26 3 51 7 54 3
4 98 7 210 7 l203 0 0 -70z m559 -85 c-14 -475 13 -974 56 -1042 18 -27 68
-38 105 -23 47 19 53 50 35 181 -19 139 -31 635 -20 872 l7 167 114 0 114 0 0
-820 0 -820 -259 0 -259 0 -6 68 c-16 170 -44 320 -117 611 -91 361 -132 572
-148 756 -7 72 -13 144 -16 162 -2 17 -1 34 3 37 3 4 94 5 201 4 l195 -3 -5
-150z m1041 27 c0 -70 7 -185 15 -256 26 -223 58 -335 203 -721 90 -240 162
-472 162 -521 0 -11 -32 -14 -175 -14 -133 0 -175 3 -175 13 0 6 -5 42 -10 79
-6 37 -16 152 -24 255 -15 182 -16 189 -41 211 -30 25 -80 29 -108 7 -32 -23
-34 -72 -16 -255 10 -96 21 -205 25 -242 l7 -68 -132 0 -131 0 0 820 0 820
200 0 200 0 0 -128z m616 81 c-14 -113 -17 -297 -7 -415 16 -181 51 -333 132
-568 87 -251 144 -441 153 -506 4 -27 9 -61 12 -76 l6 -28 -176 0 c-174 0
-176 0 -180 23 -22 117 -67 276 -111 392 -29 77 -78 206 -109 286 -64 168
-119 354 -142 478 -16 87 -31 417 -21 446 6 13 37 15 228 15 l222 0 -7 -47z
m1064 -773 l0 -820 -298 0 -298 0 -12 88 c-20 136 -56 265 -131 469 -110 299
-150 468 -166 689 -6 84 10 368 21 386 3 4 203 8 445 8 l439 0 0 -820z m-4005
-1255 c10 -272 1 -650 -19 -754 -8 -45 -27 -126 -42 -180 -28 -102 -112 -333
-124 -341 -5 -3 -53 -4 -109 -2 l-101 3 0 735 0 734 194 0 194 0 7 -195z m625
177 c0 -11 -22 -131 -49 -268 -86 -431 -99 -540 -109 -931 -4 -133 -10 -244
-13 -247 -7 -7 -449 -14 -449 -7 0 2 20 57 45 123 54 142 100 322 115 456 12
99 15 848 4 877 -5 13 23 15 225 15 218 0 231 -1 231 -18z m615 -14 c-13 -63
-67 -255 -130 -463 -35 -115 -73 -246 -84 -290 -44 -177 -67 -435 -53 -592 6
-76 5 -93 -7 -95 -7 -2 -86 -2 -174 0 l-160 3 6 247 c11 388 22 468 163 1200
l4 22 221 0 221 0 -7 -32z m455 -703 l0 -735 -42 0 c-24 -1 -144 -1 -268 -1
l-225 0 -7 38 c-11 59 -9 309 3 403 14 113 54 274 134 535 71 233 125 437 125
473 0 22 1 22 140 22 l140 0 0 -735z m624 648 c46 -254 45 -333 -9 -673 -38
-242 -55 -428 -55 -603 l0 -119 -31 6 c-17 3 -92 6 -165 6 l-134 0 0 735 0
735 189 0 189 0 16 -87z m600 7 c-16 -102 -45 -229 -100 -445 -82 -321 -88
-366 -89 -675 l0 -275 -28 1 c-15 1 -81 2 -148 3 l-121 1 4 228 c4 204 8 251
43 462 33 200 39 258 39 390 0 137 -16 289 -40 373 -5 16 10 17 224 17 l229 0
-13 -80z m622 53 c-8 -16 -39 -68 -70 -117 -167 -265 -253 -515 -263 -766 -8
-193 23 -351 98 -502 l28 -58 -209 0 c-209 0 -210 0 -214 23 -12 59 -16 287
-6 412 12 163 24 229 90 495 56 222 84 351 101 463 l12 77 224 0 224 0 -15
-27z m464 -708 l0 -735 -239 0 -239 0 -31 55 c-189 334 -156 707 103 1160 34
60 80 143 101 183 l39 72 133 0 133 0 0 -735z"/>
<path d="M6812 4192 c-29 -11 -70 -33 -90 -49 -78 -62 -132 -195 -117 -289 10
-72 61 -161 114 -199 162 -118 380 -65 468 114 28 57 30 183 3 253 -54 146
-227 223 -378 170z m155 -192 c67 -40 79 -118 27 -179 -30 -36 -78 -48 -127
-32 -48 16 -69 43 -74 95 -6 53 11 86 60 116 41 25 73 25 114 0z"/>
</g>
</svg>
