<?xml version="1.0" standalone="no"?>
<!DOCTYPE svg PUBLIC "-//W3C//DTD SVG 20010904//EN"
 "http://www.w3.org/TR/2001/REC-SVG-20010904/DTD/svg10.dtd">
<svg version="1.0" xmlns="http://www.w3.org/2000/svg"
 width="1024.000000pt" height="1024.000000pt" viewBox="0 0 1024.000000 1024.000000"
 preserveAspectRatio="xMidYMid meet">

<g transform="translate(0.000000,1024.000000) scale(0.100000,-0.100000)"
fill="#8B4513" stroke="none">
<path d="M1281 8806 c-48 -27 -50 -41 -51 -353 l0 -292 31 -36 31 -35 164 0
164 0 0 -3055 0 -3055 -137 0 c-166 0 -207 -9 -233 -53 -19 -30 -20 -52 -20
-318 0 -270 1 -288 20 -311 10 -14 32 -30 47 -37 21 -8 991 -11 3833 -9 3787
3 3805 3 3832 23 15 11 32 33 38 49 6 17 10 138 10 302 l0 272 -26 31 c-34 41
-77 51 -226 51 l-128 0 0 3055 0 3055 158 0 c134 0 160 3 178 18 42 33 44 49
44 352 l0 292 -34 34 -34 34 -3818 0 c-3151 -1 -3823 -3 -3843 -14z m7509
-346 l0 -150 -3670 0 -3670 0 0 150 0 150 3670 0 3670 0 0 -150z m-6002 -3427
l2 -3053 -470 0 -470 0 0 3055 0 3055 468 -2 467 -3 3 -3052z m1140 2639 l-3
-418 -42 -65 c-54 -82 -73 -137 -73 -208 0 -67 22 -137 63 -205 29 -47 30 -49
13 -75 -92 -141 -96 -274 -12 -401 l23 -36 -38 -71 c-64 -123 -63 -220 6 -335
l35 -59 0 -990 0 -990 -40 -66 c-80 -132 -75 -258 14 -390 l25 -36 -20 -28
c-10 -15 -30 -51 -44 -81 -45 -96 -28 -225 41 -315 26 -35 27 -37 11 -62 -99
-156 -101 -278 -6 -418 l39 -58 0 -192 0 -193 -455 0 -455 0 0 3055 0 3055
460 0 461 0 -3 -418z m1102 -292 l0 -710 -50 34 c-84 58 -152 79 -255 80 -81
1 -97 -2 -155 -30 -148 -70 -220 -179 -221 -330 0 -59 5 -83 28 -130 30 -62
101 -131 155 -151 48 -17 135 -16 174 3 60 28 81 98 47 154 -22 38 -50 49 -91
38 -62 -17 -111 37 -97 108 14 76 109 134 196 119 60 -10 128 -62 162 -123 71
-127 37 -312 -90 -490 -50 -70 -195 -220 -324 -335 -247 -220 -352 -461 -305
-697 20 -96 44 -153 97 -222 46 -62 141 -134 194 -149 l39 -11 -69 -36 c-127
-67 -224 -190 -254 -322 -16 -67 -13 -204 5 -273 46 -178 125 -292 379 -542
241 -239 299 -318 341 -470 20 -69 19 -175 -2 -237 -30 -91 -119 -158 -211
-158 -49 0 -127 45 -151 89 -31 55 -29 96 8 133 27 26 35 29 70 23 51 -9 84
11 100 59 24 73 -44 145 -137 146 -51 0 -138 -38 -181 -79 -62 -60 -86 -121
-87 -216 0 -124 50 -222 150 -290 141 -98 330 -97 475 0 29 19 54 35 56 35 2
0 5 -95 6 -210 l3 -210 -450 0 -450 0 -3 221 -2 220 31 66 c25 52 31 78 31
131 0 72 -27 160 -62 205 -11 14 -20 30 -20 36 0 5 16 42 36 81 61 121 57 219
-12 333 -33 53 -35 60 -20 75 8 10 28 44 43 77 23 50 28 73 28 141 0 72 -4 88
-32 144 l-33 63 0 1024 0 1024 32 62 c29 56 33 71 33 148 0 81 -2 91 -38 159
l-38 73 38 71 c36 67 38 76 38 161 0 91 -9 122 -58 195 -16 24 -15 28 25 110
36 74 42 94 42 151 -1 56 -6 77 -38 139 -36 71 -36 74 -21 106 13 27 15 96 15
463 l0 431 440 0 440 0 0 -710z m1108 288 l-3 -423 -33 -47 c-59 -84 -76 -135
-77 -223 0 -74 3 -86 41 -163 l42 -83 -37 -71 c-34 -66 -36 -77 -36 -162 0
-87 2 -94 40 -164 39 -72 39 -73 22 -100 -82 -125 -88 -264 -17 -376 l30 -47
0 -1003 0 -1003 -27 -39 c-84 -124 -85 -275 0 -399 24 -36 25 -41 12 -60 -54
-74 -70 -119 -70 -205 0 -83 2 -88 42 -158 l42 -73 -31 -50 c-79 -130 -76
-266 11 -392 l31 -46 0 -200 0 -201 -435 0 -435 0 0 217 0 217 28 -26 c57 -53
176 -98 263 -98 102 0 234 62 299 141 54 67 73 118 78 210 5 101 -11 150 -74
218 -118 131 -329 115 -329 -25 0 -61 27 -86 100 -92 44 -4 60 -10 75 -30 45
-57 12 -148 -70 -189 -52 -27 -91 -29 -151 -8 -57 20 -96 58 -125 120 -32 68
-38 122 -24 202 26 152 110 284 289 457 274 264 334 335 400 477 116 250 87
487 -82 650 -37 35 -120 83 -182 104 -17 5 -12 10 26 24 62 24 125 68 181 128
87 94 129 211 129 355 -1 205 -88 373 -295 568 -202 190 -313 307 -363 382
-105 158 -137 317 -87 437 24 57 92 120 148 136 66 20 92 19 142 -6 73 -35
102 -106 69 -169 -20 -39 -41 -49 -97 -47 -55 2 -85 -20 -94 -70 -9 -47 16
-97 57 -119 23 -12 50 -15 100 -12 57 3 75 9 118 38 94 64 141 154 141 269 0
156 -118 293 -290 337 -111 28 -244 2 -339 -66 l-41 -30 0 705 0 705 445 0
446 0 -3 -422z m1152 -2633 l0 -3055 -480 0 -480 0 0 220 0 219 31 62 c57 112
48 242 -22 339 -26 35 -29 47 -20 59 6 9 26 45 43 81 27 54 32 77 33 137 0 64
-4 79 -41 151 l-42 79 29 43 c68 102 76 222 21 329 l-32 63 0 1024 0 1025 30
60 c63 123 61 223 -5 333 l-34 57 35 58 c69 116 68 229 -1 343 l-35 56 42 81
c39 75 42 86 41 158 -1 80 -15 130 -55 186 -19 26 -19 30 -4 68 14 34 16 98
16 459 l0 420 465 0 465 0 0 -3055z m1120 0 l0 -3055 -450 0 -450 0 0 3055 0
3055 450 0 450 0 0 -3055z m-4390 1945 c0 -34 -9 -60 -20 -60 -15 0 -22 58
-10 80 14 27 30 17 30 -20z m2215 19 c10 -29 -4 -91 -18 -86 -23 7 -20 107 3
107 5 0 12 -9 15 -21z m-2215 -484 c0 -64 -23 -88 -35 -37 -7 33 10 86 25 77
5 -3 10 -21 10 -40z m2219 -20 c1 -36 -13 -60 -28 -51 -14 9 -14 57 0 93 10
26 12 27 19 8 5 -11 9 -33 9 -50z m-2219 -460 c0 -16 -5 -37 -10 -45 -9 -13
-11 -13 -20 0 -13 19 -13 42 1 77 8 22 12 24 19 13 6 -8 10 -28 10 -45z m2215
-22 c-3 -18 -10 -35 -15 -38 -15 -10 -24 64 -10 93 l12 27 10 -25 c5 -14 7
-39 3 -57z m-1016 -97 c64 -109 177 -241 322 -376 190 -176 256 -256 300 -368
34 -85 34 -228 -1 -295 -49 -97 -141 -151 -255 -152 -87 0 -154 31 -202 93
-55 72 -56 141 -3 193 39 40 73 38 123 -7 35 -33 44 -36 81 -31 54 8 86 44 86
98 0 143 -183 221 -347 149 -78 -34 -173 -155 -173 -220 0 -34 -15 -22 -27 23
-16 59 -64 127 -117 165 -43 31 -136 62 -186 62 -131 0 -249 -125 -210 -221
30 -71 107 -82 171 -24 21 19 43 35 48 35 27 0 63 -23 81 -52 35 -58 23 -127
-33 -186 -54 -57 -102 -77 -187 -77 -65 0 -82 4 -128 29 -154 86 -196 280
-102 467 46 90 88 139 301 349 226 223 294 309 355 447 l26 58 16 -40 c8 -22
36 -75 61 -119z m-39 -1167 c45 -88 135 -164 236 -198 46 -15 55 -21 39 -26
-168 -58 -287 -181 -303 -312 -5 -46 -22 -49 -22 -5 0 35 -42 124 -80 173 -39
49 -134 112 -194 129 -46 12 -62 30 -28 30 33 0 137 57 188 103 51 46 114 148
114 184 0 36 15 35 22 -1 4 -20 17 -54 28 -77z m-385 -433 c120 -55 171 -191
100 -262 -34 -34 -76 -31 -121 8 -69 61 -156 33 -171 -55 -8 -51 33 -118 95
-154 41 -25 57 -28 132 -28 73 0 92 4 136 27 88 46 164 158 164 241 0 51 16
39 23 -18 13 -89 80 -180 169 -227 35 -18 59 -23 128 -23 75 0 91 3 133 28
104 61 117 185 25 233 -38 20 -66 13 -106 -26 -48 -46 -105 -36 -138 25 -59
111 65 255 220 255 96 0 133 -15 197 -79 88 -89 110 -191 69 -322 -37 -120
-101 -213 -233 -339 -194 -184 -294 -288 -343 -357 -48 -67 -124 -219 -124
-247 0 -33 -16 -14 -38 47 -49 138 -161 281 -361 462 -257 231 -350 386 -339
559 14 207 207 334 383 252z m-775 -755 c0 -33 -14 -56 -29 -47 -12 8 -15 64
-4 92 6 16 7 16 20 -2 7 -10 13 -29 13 -43z m2204 43 c13 -34 4 -104 -14 -104
-4 0 -11 15 -14 34 -11 57 12 113 28 70z m1 -487 c4 -18 1 -46 -6 -62 l-12
-30 -8 30 c-10 34 -2 108 11 100 5 -3 12 -20 15 -38z m-2210 4 c11 -51 -13
-106 -29 -65 -13 33 -3 94 14 94 5 0 11 -13 15 -29z m5 -484 c0 -59 -14 -78
-28 -38 -6 18 -9 38 -7 46 3 8 7 22 10 31 9 28 25 3 25 -39z m2214 22 c3 -18
0 -41 -8 -57 l-14 -27 -11 27 c-6 15 -8 35 -6 43 3 8 7 22 10 30 7 25 22 17
29 -16z m2557 -903 c2 -2 3 -68 1 -145 l-3 -141 -3670 0 -3669 0 0 145 0 145
3668 0 c2018 0 3671 -2 3673 -4z"/>
</g>
</svg>
