<?xml version="1.0" standalone="no"?>
<!DOCTYPE svg PUBLIC "-//W3C//DTD SVG 20010904//EN"
 "http://www.w3.org/TR/2001/REC-SVG-20010904/DTD/svg10.dtd">
<svg version="1.0" xmlns="http://www.w3.org/2000/svg"
 width="1024.000000pt" height="1024.000000pt" viewBox="0 0 1024.000000 1024.000000"
 preserveAspectRatio="xMidYMid meet">

<g transform="translate(0.000000,1024.000000) scale(0.100000,-0.100000)"
fill="#000000" stroke="none">
<path d="M5641 9603 c-36 -7 -70 -32 -87 -64 -11 -22 -14 -79 -14 -273 l0
-245 -297 -3 c-335 -3 -343 -5 -364 -77 -7 -24 -9 -286 -7 -826 3 -783 4 -791
26 -870 31 -109 109 -266 175 -351 123 -156 309 -277 532 -342 l90 -27 1153
-3 1153 -3 29 30 30 29 0 256 0 256 204 0 c123 0 216 4 235 11 63 22 61 2 61
720 0 638 0 652 -20 685 -11 18 -123 132 -248 254 -125 122 -368 362 -541 534
l-314 311 -886 1 c-487 1 -897 -1 -910 -3z m672 -180 c-13 -2 -35 -2 -50 0
-16 2 -5 4 22 4 28 0 40 -2 28 -4z m194 1 c-3 -3 -12 -4 -19 -1 -8 3 -5 6 6 6
11 1 17 -2 13 -5z m131 -1 c-16 -2 -40 -2 -55 0 -16 2 -3 4 27 4 30 0 43 -2
28 -4z m129 1 c-3 -3 -12 -4 -19 -1 -8 3 -5 6 6 6 11 1 17 -2 13 -5z m266 -1
c-13 -2 -35 -2 -50 0 -16 2 -5 4 22 4 28 0 40 -2 28 -4z m247 -65 c1 -286 13
-733 21 -768 21 -91 76 -159 169 -207 l55 -28 418 -3 417 -3 0 -525 0 -525
-982 4 c-977 3 -984 3 -1063 25 -44 12 -123 43 -175 69 -80 40 -111 63 -191
143 -81 80 -103 109 -137 180 -73 151 -72 133 -72 902 0 379 3 687 6 685 4 -1
32 -28 62 -60 205 -214 606 -462 921 -568 124 -41 133 -43 158 -29 16 9 31 29
37 48 16 55 -12 79 -153 133 -317 123 -576 283 -836 517 l-58 52 701 0 702 0
0 -42z m915 -770 c42 -24 0 -28 -290 -28 -339 0 -359 3 -395 62 -19 31 -20 50
-20 348 l0 314 345 -344 c189 -189 351 -348 360 -352z m-2892 215 c8 -16 -22
-272 -43 -363 -33 -149 -58 -226 -112 -350 -84 -190 -78 -211 -78 276 0 237 3
434 7 437 9 10 221 9 226 0z m239 -470 c3 -406 6 -486 20 -528 9 -27 19 -59
23 -70 8 -27 -88 -171 -197 -294 -83 -95 -239 -241 -257 -241 -16 0 -42 94
-51 182 -4 46 -6 139 -3 208 l6 125 43 55 c164 211 290 548 320 859 4 41 8 83
9 95 1 12 3 36 4 54 1 30 3 32 40 32 l40 0 3 -477z m183 -840 c35 -49 93 -106
198 -195 l27 -23 -81 -110 c-91 -124 -328 -365 -358 -365 -33 0 -196 117 -255
182 -31 34 -56 64 -56 67 1 3 26 24 57 46 109 78 304 286 388 413 15 23 30 42
34 42 3 -1 24 -26 46 -57z m540 -349 c50 -13 99 -24 110 -24 52 -1 51 -13 -9
-134 -44 -90 -73 -132 -128 -191 l-71 -77 -228 4 c-125 2 -231 7 -235 11 -4 4
33 49 83 100 98 100 183 205 251 309 l43 67 47 -20 c26 -12 88 -31 137 -45z
m558 -54 c229 0 216 9 167 -111 -34 -83 -107 -197 -152 -234 -29 -25 -30 -25
-245 -25 l-215 0 17 27 c10 14 33 46 51 71 36 46 102 178 124 245 10 33 16 38
34 33 11 -3 110 -6 219 -6z m1037 -185 l0 -185 -188 0 -188 0 4 69 c4 61 2 71
-19 90 -23 21 -73 28 -95 13 -18 -12 -34 -49 -34 -80 0 -16 -5 -43 -11 -61
l-11 -31 -154 0 -153 0 47 63 c55 72 87 143 111 239 l16 68 338 0 337 0 0
-185z m17 -12 c-3 -10 -5 -2 -5 17 0 19 2 27 5 18 2 -10 2 -26 0 -35z m0 -70
c-3 -10 -5 -4 -5 12 0 17 2 24 5 18 2 -7 2 -21 0 -30z m-694 -290 c-13 -2 -33
-2 -45 0 -13 2 -3 4 22 4 25 0 35 -2 23 -4z m675 0 c-16 -2 -40 -2 -55 0 -16
2 -3 4 27 4 30 0 43 -2 28 -4z"/>
<path d="M5928 8671 c-34 -28 -43 -65 -22 -99 43 -74 334 -233 604 -331 163
-58 533 -141 633 -141 73 0 112 50 87 111 -15 35 -40 44 -170 64 -356 54 -767
206 -1016 376 -58 40 -85 44 -116 20z"/>
<path d="M5963 8068 c-28 -13 -46 -57 -38 -91 10 -39 40 -61 175 -126 207 -99
455 -179 715 -230 275 -54 395 -65 690 -66 287 0 335 5 366 36 27 27 26 92 -2
120 -21 21 -26 21 -223 14 -539 -18 -1057 80 -1500 285 -83 39 -153 70 -156
69 -3 0 -15 -5 -27 -11z m1898 -375 c13 -16 12 -17 -3 -4 -10 7 -18 15 -18 17
0 8 8 3 21 -13z"/>
<path d="M1858 6636 c-90 -24 -170 -93 -215 -186 -34 -72 -44 -218 -20 -301
32 -108 99 -182 206 -225 l56 -23 5 -1943 5 -1943 27 -46 c51 -87 141 -147
234 -156 48 -5 54 -8 54 -28 0 -20 -48 -496 -95 -933 -19 -176 -12 -201 60
-233 42 -19 63 -20 234 -17 184 3 188 3 228 30 29 19 49 44 69 85 27 57 180
427 358 863 l92 225 1977 3 c1877 2 1978 1 1984 -15 5 -17 212 -517 375 -907
43 -103 88 -202 100 -218 41 -58 82 -68 286 -68 197 0 235 7 266 51 24 35 21
98 -24 487 -57 506 -70 621 -70 648 0 21 5 24 33 24 42 0 121 26 169 57 46 28
103 112 118 173 7 32 10 627 8 2028 l-3 1984 -28 24 -28 24 -3195 0 c-3122 0
-3196 0 -3232 19 -93 48 -108 204 -28 279 l36 32 1544 0 c1542 0 1543 0 1569
21 58 45 57 137 -2 175 -24 17 -123 18 -1566 20 -1197 2 -1550 -1 -1587 -10z
m6322 -2640 l0 -1903 -21 -26 c-11 -15 -37 -31 -57 -37 -26 -8 -922 -10 -2995
-8 l-2959 3 -29 33 -29 32 0 1905 0 1905 3045 0 3045 0 0 -1904z m-5244 -2213
c-7 -16 -76 -179 -151 -363 -75 -184 -164 -399 -197 -478 l-60 -142 -102 0
c-57 0 -105 2 -107 5 -3 2 19 226 48 497 29 271 53 496 53 501 0 4 119 7 265
7 l266 0 -15 -27z m4938 -230 c31 -293 73 -660 82 -715 l6 -38 -110 0 -109 0
-31 73 c-17 39 -108 257 -202 482 -95 226 -178 420 -186 433 l-14 22 268 0
269 0 27 -257z"/>
<path d="M2384 5671 c-17 -11 -36 -34 -43 -52 -14 -41 -16 -1405 -2 -1442 6
-14 20 -35 32 -46 l23 -21 2736 0 2737 0 26 24 c14 13 29 35 32 48 3 12 4 344
3 735 l-3 713 -28 27 -27 28 -2728 2 c-2667 3 -2728 3 -2758 -16z m5344 -778
l-3 -588 -2592 -3 -2593 -2 0 590 0 590 2595 0 2595 0 -2 -587z m-5100 -610
c-10 -2 -28 -2 -40 0 -13 2 -5 4 17 4 22 1 32 -1 23 -4z m215 0 c-24 -2 -62
-2 -85 0 -24 2 -5 4 42 4 47 0 66 -2 43 -4z m1765 0 c-306 -2 -810 -2 -1120 0
-310 1 -59 2 557 2 616 0 869 -1 563 -2z m764 0 c-40 -2 -103 -2 -140 0 -37 2
-4 3 73 3 77 0 107 -2 67 -3z m1156 0 c-196 -2 -520 -2 -720 0 -200 1 -39 2
357 2 396 0 559 -1 363 -2z m760 0 c-64 -2 -172 -2 -240 0 -68 1 -15 3 117 3
132 0 187 -2 123 -3z m350 0 c-43 -2 -113 -2 -155 0 -43 1 -8 3 77 3 85 0 120
-2 78 -3z"/>
<path d="M5004 5166 c-75 -35 -127 -86 -159 -158 -73 -162 -3 -349 158 -424
75 -34 193 -34 263 1 147 73 217 235 168 391 -23 76 -116 173 -189 198 -73 24
-179 21 -241 -8z m186 -181 c42 -22 63 -68 57 -124 -16 -147 -237 -129 -237
19 0 90 98 147 180 105z"/>
<path d="M2368 3841 l-33 -29 -3 -719 c-2 -525 1 -725 9 -746 7 -15 23 -37 37
-47 24 -20 55 -20 2748 -20 1937 0 2730 3 2747 11 13 6 31 23 40 39 15 25 17
94 17 745 0 777 1 757 -55 783 -20 9 -659 12 -2750 12 l-2725 0 -32 -29z
m5362 -761 l0 -590 -2595 0 -2595 0 0 590 0 590 2595 0 2595 0 0 -590z"/>
<path d="M5029 3346 c-88 -31 -150 -91 -190 -182 -31 -70 -24 -189 16 -263 58
-106 139 -154 268 -159 83 -4 93 -2 152 27 65 32 114 81 151 151 15 27 19 56
19 130 0 87 -3 100 -30 149 -57 102 -160 161 -283 161 -37 -1 -83 -7 -103 -14z
m187 -210 c28 -28 34 -42 34 -75 0 -57 -22 -95 -66 -116 -47 -22 -94 -13 -132
25 -77 76 -24 200 85 200 38 0 50 -5 79 -34z"/>
</g>
</svg>
